<?xml version="1.0" standalone="no"?>
<!DOCTYPE svg PUBLIC "-//W3C//DTD SVG 20010904//EN"
 "http://www.w3.org/TR/2001/REC-SVG-20010904/DTD/svg10.dtd">
<svg version="1.0" xmlns="http://www.w3.org/2000/svg"
 width="526.000000pt" height="474.000000pt" viewBox="0 0 526.000000 474.000000"
 preserveAspectRatio="xMidYMid meet">
<metadata>
Created by potrace 1.16, written by Peter Selinger 2001-2019
</metadata>
<g transform="translate(0.000000,474.000000) scale(0.100000,-0.100000)"
fill="#000000" stroke="none">
<path d="M3325 4455 c-242 -19 -721 -55 -1065 -80 -1569 -114 -1495 -106
-1663 -192 -74 -38 -110 -65 -182 -138 -96 -95 -152 -185 -193 -310 -43 -128
-44 -182 -12 -623 108 -1493 102 -1431 139 -1542 57 -168 169 -314 311 -405
89 -58 425 -231 477 -246 24 -7 43 -15 43 -18 0 -3 7 -87 15 -186 8 -99 15
-192 15 -206 0 -20 22 -46 94 -112 l94 -87 391 299 392 299 122 6 c67 4 390
15 717 26 1264 42 1426 50 1506 70 237 61 438 249 513 480 30 93 39 179 35
305 -3 61 -16 439 -29 840 -27 808 -31 874 -51 954 -20 78 -73 185 -126 256
-63 83 -362 413 -421 463 -68 59 -170 117 -262 148 -120 42 -302 41 -860 -1z
m790 -81 c186 -45 352 -181 439 -359 64 -131 57 -66 152 -1365 39 -545 44
-636 34 -709 -39 -298 -274 -537 -570 -580 -41 -6 -388 -33 -770 -61 -382 -28
-872 -64 -1088 -79 l-393 -29 -62 -52 c-352 -291 -550 -450 -556 -445 -3 4
-13 104 -21 223 l-15 217 -140 1 c-155 1 -226 14 -332 65 -225 107 -366 322
-387 589 -53 677 -118 1611 -118 1700 -1 138 16 210 75 325 78 150 225 275
387 329 88 29 61 27 1085 101 418 30 1032 75 1365 100 798 59 791 59 915 29z"/>
</g>
</svg>
